<?xml version="1.0" standalone="no"?>
<!DOCTYPE svg PUBLIC "-//W3C//DTD SVG 20010904//EN"
 "http://www.w3.org/TR/2001/REC-SVG-20010904/DTD/svg10.dtd">
<svg version="1.0" xmlns="http://www.w3.org/2000/svg"
 width="182.000000pt" height="182.000000pt" viewBox="0 0 182.000000 182.000000"
 preserveAspectRatio="xMidYMid meet">
<metadata>
Created by potrace 1.11, written by Peter Selinger 2001-2013
</metadata>
<g transform="translate(0.000000,182.000000) scale(0.100000,-0.100000)"
fill="#000000" stroke="none">
<path d="M539 1679 c-141 -20 -269 -101 -351 -222 -57 -83 -81 -156 -82 -247
l-1 -75 765 0 765 0 -1 75 c-3 138 -77 275 -198 367 -81 60 -154 91 -251 103
-85 11 -569 11 -646 -1z m680 -80 c168 -38 316 -193 337 -351 l7 -48 -693 0
-693 0 7 52 c20 149 159 300 316 342 66 18 647 22 719 5z"/>
<path d="M112 1008 c-16 -16 -15 -43 1 -56 6 -5 35 -12 62 -15 28 -2 86 -10
130 -17 70 -12 92 -11 172 3 115 21 182 21 290 0 75 -15 96 -15 167 -4 147 23
197 24 312 6 98 -16 120 -17 185 -5 41 7 100 16 132 19 58 7 80 21 74 50 -5
32 -33 36 -149 17 -117 -19 -166 -18 -305 5 -73 11 -93 11 -171 -4 -112 -21
-183 -21 -288 0 -73 15 -92 16 -166 4 -140 -23 -219 -24 -303 -7 -92 19 -127
20 -143 4z"/>
<path d="M104 786 c-17 -43 -3 -50 136 -74 l135 -23 123 21 123 20 125 -20
126 -21 119 21 120 20 124 -20 c100 -16 135 -18 182 -10 32 5 93 15 135 21 61
10 79 16 84 31 15 48 -48 61 -161 33 -78 -19 -141 -19 -238 0 -98 19 -175 19
-252 0 -76 -18 -152 -18 -235 0 -36 8 -92 14 -125 14 -33 0 -89 -6 -125 -14
-36 -8 -90 -14 -120 -14 -30 0 -84 6 -120 14 -86 19 -149 19 -156 1z"/>
<path d="M107 583 c-4 -3 -7 -43 -7 -87 0 -95 16 -134 73 -180 l39 -31 646 -3
c727 -3 682 -7 747 72 29 36 30 42 30 134 l0 97 -761 3 c-418 1 -764 -1 -767
-5z m1460 -109 c-6 -57 -33 -95 -78 -111 -49 -17 -1189 -17 -1238 0 -45 16
-72 54 -78 111 l-6 46 703 0 703 0 -6 -46z"/>
</g>
</svg>
